<svg width="50" height="50" viewBox="0 0 50 50" fill="none" xmlns="http://www.w3.org/2000/svg">
<g filter="url(#filter0_d_858_87204)">
<path d="M25 6C16.7287 6 10 12.7287 10 21C10 29.2713 16.7287 36 25 36C33.2713 36 40 29.2713 40 21C40 12.7287 33.2713 6 25 6Z" fill="#00843C"/>
</g>
<path d="M32.6028 17.8216L24.4778 25.9464C24.234 26.1902 23.914 26.3129 23.5941 26.3129C23.2741 26.3129 22.9541 26.1902 22.7103 25.9464L18.6479 21.884C18.159 21.3954 18.159 20.6053 18.6479 20.1166C19.1366 19.6277 19.9265 19.6277 20.4153 20.1166L23.5941 23.2953L30.8354 16.0542C31.3241 15.5653 32.114 15.5653 32.6028 16.0542C33.0915 16.5428 33.0915 17.3327 32.6028 17.8216Z" fill="#FAFAFA"/>
<defs>
<filter id="filter0_d_858_87204" x="0" y="0" width="50" height="50" filterUnits="userSpaceOnUse" color-interpolation-filters="sRGB">
<feFlood flood-opacity="0" result="BackgroundImageFix"/>
<feColorMatrix in="SourceAlpha" type="matrix" values="0 0 0 0 0 0 0 0 0 0 0 0 0 0 0 0 0 0 127 0" result="hardAlpha"/>
<feOffset dy="4"/>
<feGaussianBlur stdDeviation="5"/>
<feComposite in2="hardAlpha" operator="out"/>
<feColorMatrix type="matrix" values="0 0 0 0 0.254902 0 0 0 0 0.466667 0 0 0 0 1 0 0 0 0.35 0"/>
<feBlend mode="normal" in2="BackgroundImageFix" result="effect1_dropShadow_858_87204"/>
<feBlend mode="normal" in="SourceGraphic" in2="effect1_dropShadow_858_87204" result="shape"/>
</filter>
</defs>
</svg>
