<svg width="16" height="20" viewBox="0 0 16 20" fill="none" xmlns="http://www.w3.org/2000/svg">
<path d="M1.75851 7.0478H1.95053V17.0078C1.95053 18.3278 3.03049 19.4078 4.35054 19.4078H11.6465C12.9666 19.4078 14.0465 18.3278 14.0465 17.0078L14.0467 7.0478H14.2387C14.9107 7.0478 15.4387 6.5198 15.4387 5.8478V3.87972C15.4387 3.20772 14.9107 2.67972 14.2387 2.67972H11.2627V1.93576C11.2627 1.21572 10.6627 0.615723 9.94264 0.615723H6.05468C5.33464 0.615723 4.73464 1.21572 4.73464 1.93576V2.67972H1.75859C1.08659 2.67972 0.558594 3.20772 0.558594 3.87972V5.8478C0.558594 6.49567 1.11072 7.0478 1.75859 7.0478H1.75851ZM13.0865 17.0078C13.0865 17.7998 12.4385 18.4479 11.6464 18.4479H4.35043C3.55843 18.4479 2.91034 17.7998 2.91034 17.0078L2.91051 7.0478H13.0865L13.0865 17.0078ZM5.69451 1.93581C5.69451 1.74379 5.8626 1.57588 6.05445 1.57588H9.91845C10.1105 1.57588 10.2784 1.74396 10.2784 1.93581V2.67976H5.69438L5.69451 1.93581ZM1.5186 3.87976C1.5186 3.73579 1.61453 3.63969 1.75867 3.63969L14.2387 3.63986C14.3826 3.63986 14.4787 3.73579 14.4787 3.87993V5.84801C14.4787 5.99199 14.3828 6.08808 14.2387 6.08808L1.75867 6.08775C1.61469 6.08775 1.5186 5.99182 1.5186 5.84768V3.87976Z" fill="#FF2E63"/>
<path d="M9.99219 9.11182H10.9521V16.1198H9.99219V9.11182Z" fill="#FF2E63"/>
<path d="M7.51953 9.11182H8.47944V16.1198H7.51953V9.11182Z" fill="#FF2E63"/>
<path d="M5.04688 9.11182H6.00679V16.1198H5.04688V9.11182Z" fill="#FF2E63"/>
</svg>
