<svg width="16" height="16" viewBox="0 0 16 16" fill="none" xmlns="http://www.w3.org/2000/svg">
<path fill-rule="evenodd" clip-rule="evenodd" d="M8.59301 9.80276V0.6952C8.59301 0.51078 8.51998 0.334143 8.38963 0.20382C8.25929 0.0734774 8.08206 0 7.8978 0C7.71353 0 7.5363 0.0734737 7.40596 0.20382C7.27562 0.334162 7.20258 0.510799 7.20258 0.6952V9.80276C7.20258 9.80276 5.87605 8.47654 5.13221 7.7327C5.00171 7.60236 4.82508 7.52903 4.64067 7.52903C4.4564 7.52903 4.27932 7.60236 4.14899 7.7327C3.87742 8.00427 3.87742 8.44438 4.14899 8.71595L7.43244 11.9994C7.55588 12.1228 7.7234 12.1923 7.89783 12.1923C8.07225 12.1923 8.23978 12.1228 8.36322 11.9994L11.6467 8.71595C11.9182 8.44439 11.9182 8.00427 11.6467 7.7327C11.5163 7.60236 11.3392 7.52903 11.155 7.52903C10.9706 7.52903 10.7939 7.60236 10.6634 7.7327C9.9196 8.47654 8.59307 9.80276 8.59307 9.80276H8.59301Z" fill="#FF2E63"/>
<path fill-rule="evenodd" clip-rule="evenodd" d="M0 14.4828C0 14.8321 0.138574 15.1668 0.385747 15.4137C0.632623 15.6609 0.967377 15.7994 1.31667 15.7994H14.4834C14.8327 15.7994 15.1674 15.6609 15.4143 15.4137C15.6615 15.1668 15.8 14.8321 15.8 14.4828V10.4974C15.8 10.1136 15.4887 9.80225 15.1048 9.80225H15.1046C14.9201 9.80225 14.7435 9.87572 14.6132 10.0061C14.4828 10.1364 14.4093 10.3132 14.4093 10.4974V13.7503C14.4093 14.114 14.1147 14.4086 13.751 14.4086H2.0492C1.6855 14.4086 1.39086 14.114 1.39086 13.7503V10.4974C1.39086 10.3132 1.31739 10.1364 1.18704 10.0061C1.0567 9.87572 0.880062 9.80225 0.695661 9.80225H0.695367C0.311538 9.80225 0.000164745 10.1136 0.000164745 10.4974V14.4828H0Z" fill="#FF2E63"/>
</svg>
