<svg width="25" height="24" viewBox="0 0 25 24" fill="none" xmlns="http://www.w3.org/2000/svg">
<path d="M21.428 0.0027119C20.9626 0.00773423 20.4994 0.166357 20.136 0.527756L9.71437 10.8858L9.68616 10.9138C9.39626 11.1884 9.34174 11.3878 9.22405 11.6638C9.10153 11.951 8.98847 12.2977 8.89395 12.6857C8.70489 13.4616 8.59268 14.4131 8.76195 15.3854C8.82574 15.747 9.13373 16.0532 9.4975 16.1166C10.4756 16.2848 11.4331 16.1733 12.2137 15.9853C12.604 15.8914 12.9434 15.779 13.2322 15.6572C13.5097 15.5402 13.7107 15.4762 13.9867 15.1885C13.9981 15.1765 14.0034 15.1732 14.0149 15.1602L24.4458 4.80217C25.2767 3.97642 25.0603 2.66643 24.2761 1.88691L23.0689 0.687018C22.6767 0.297162 22.1569 0.0489817 21.626 0.0027495C21.5597 -0.00311015 21.4944 0.0021217 21.4279 0.0027495L21.428 0.0027119ZM21.4186 1.80261C21.4123 1.80889 21.5662 1.74318 21.7864 1.96207C22.1885 2.36553 22.5959 2.76355 23.003 3.16196C23.2232 3.38085 23.1569 3.53382 23.1634 3.52755L22.5598 4.12749L20.8245 2.39333L21.4186 1.80261ZM19.5417 3.66797L21.2771 5.40213L12.7515 13.8761C12.7706 13.8472 12.6599 13.9412 12.5252 13.9979C12.3456 14.0736 12.0896 14.16 11.7896 14.2322C11.3999 14.326 10.9502 14.3691 10.5071 14.3729C10.5115 13.9345 10.5546 13.4927 10.6485 13.1074C10.7212 12.8092 10.8176 12.5456 10.8938 12.3669C10.9372 12.2656 10.9753 12.2039 10.9786 12.1888L19.5417 3.66797ZM3.24446 4.20222C1.58827 4.20222 0.226562 5.55576 0.226562 7.20201V21.0004C0.226562 22.6467 1.58827 24 3.24446 24H17.1272C18.7834 24 20.1451 22.6465 20.1451 21.0004V12.3015C20.1519 11.826 19.7182 11.3887 19.2397 11.3887C18.7613 11.3887 18.3274 11.826 18.3342 12.3015V21.0004C18.3342 21.6807 17.8114 22.2003 17.127 22.2003H3.24425C2.55983 22.2003 2.03711 21.6807 2.03711 21.0004V7.20201C2.03711 6.52171 2.55984 6.00212 3.24425 6.00212H13.2035C13.6818 6.00881 14.1218 5.57773 14.1218 5.10228C14.1218 4.62682 13.6818 4.19574 13.2035 4.20243L3.24446 4.20222Z" fill="#FF2E63"/>
</svg>
