<svg width="24" height="16" viewBox="0 0 24 16" fill="none" xmlns="http://www.w3.org/2000/svg">
<path fill-rule="evenodd" clip-rule="evenodd" d="M14.5302 7.99973C14.5302 9.56324 13.3972 10.8304 12 10.8304C10.6025 10.8304 9.46948 9.56324 9.46948 7.99973C9.46948 6.43623 10.6025 5.16909 12 5.16909C13.3972 5.16909 14.5302 6.43623 14.5302 7.99973ZM11.9996 13.3597C9.35363 13.3597 7.20868 10.9598 7.20868 7.99973C7.20868 5.03963 9.35358 2.63976 11.9996 2.63976C14.646 2.63976 16.7911 5.03963 16.7911 7.99973C16.7911 10.9598 14.6462 13.3597 11.9996 13.3597ZM12 0C5.37238 0 0 7.96084 0 7.96084C0 7.96084 5.37238 16 12 16C18.6276 16 24 7.96084 24 7.96084C24 7.96084 18.6276 0 12 0Z" fill="#FF2E63"/>
</svg>
