<?xml version="1.0" encoding="utf-8"?>
<!-- Generator: Adobe Illustrator 19.0.0, SVG Export Plug-In . SVG Version: 6.00 Build 0)  -->
<svg version="1.1" id="Layer_1" xmlns="http://www.w3.org/2000/svg" xmlns:xlink="http://www.w3.org/1999/xlink" x="0px" y="0px"
	 viewBox="0 0 915 373" style="enable-background:new 0 0 915 373;" xml:space="preserve">
<style type="text/css">
	.st0{fill:#FFFFFF;}
	.st1{fill:#FF2E63;}
	.st2{fill:#3DB2FF;}
	.st3{fill:#3DB320;}
	.st4{fill:#6772E5;}
</style>
<rect id="XMLID_2_" class="st0" width="915" height="373"/>
<g id="XMLID_5_">
	<g id="XMLID_7_">
		<path id="XMLID_21_" d="M350.4,169.3c-2.7-6-6.7-10.6-11.7-13.9c-5-3.3-10.8-5-17.1-5c-5.6,0-10.7,1.3-15.1,3.9
			c-3.7,2.2-6.6,5.1-8.6,8.7l-1.3-10.7h-21.8l0.1,0.7c0.8,6.2,1.2,13.2,1.2,20.9v84.3h23.1v-40.6c2.1,3,4.9,5.4,8.4,7.3
			c4.1,2.2,8.9,3.3,14,3.3c6.5,0,12.3-1.6,17.3-4.7c5-3.1,8.9-7.7,11.7-13.4c2.7-5.9,4.1-12.7,4.1-20.2
			C354.6,182.1,353.2,175.2,350.4,169.3z M331.5,189.6c0,6.7-1.4,11.9-4.2,15.4c-2.8,3.4-6.8,5.1-12,5.1c-5.2,0-9.3-1.8-12.1-5.3
			c-2.8-3.5-4.2-8.8-4.2-15.5c0-6.8,1.4-12,4.2-15.5c2.9-3.6,6.9-5.4,12.1-5.4c5.2,0,9,1.8,11.8,5.6
			C330.1,177.7,331.5,183,331.5,189.6z"/>
		<path id="XMLID_20_" d="M427.6,202.3l-0.7,0.5c-2.8,2.3-6,4.1-9.4,5.4c-3.4,1.2-6.7,1.8-9.9,1.8c-5.9,0-10.5-1.7-13.6-5.2
			c-3.2-3.5-4.8-8.8-4.8-15.7c0-6.8,1.6-11.9,4.8-15.4c3.2-3.5,7.8-5.3,13.6-5.3c3.2,0,6.5,0.7,9.9,2c3.4,1.2,6.5,3,9.4,5.3l0.7,0.5
			l6.1-16l0.1-0.4l-0.3-0.3c-3-2.9-7.2-5.1-12.2-6.8c-5.1-1.7-10.3-2.5-15.7-2.5c-7.9,0-15,1.7-21,5c-6,3.2-10.7,7.9-14,13.9
			c-3.3,5.9-5,12.7-5,20.4c0,11.8,3.5,21.3,10.3,28.1c6.9,6.8,16.6,10.3,28.7,10.3c5.6,0,11.1-0.8,16.3-2.3
			c5.2-1.7,9.4-3.9,12.7-6.8l0.3-0.3L427.6,202.3z"/>
		<path id="XMLID_17_" d="M520.3,168.8c-2.7-5.9-6.7-10.4-11.7-13.6c-5-3.2-10.8-4.9-17.3-4.9c-5.1,0-9.8,1.1-14,3.4
			c-3.5,1.8-6.3,4.2-8.4,7.2v-41.9h-23.1v107.8h23v-9.5c2.1,3,4.9,5.5,8.4,7.4c4.2,2.2,9,3.3,14.2,3.3c6.4,0,12.1-1.6,17.1-4.9
			c5-3.3,8.9-8,11.7-13.9c2.8-6,4.3-12.8,4.3-20.4C524.4,181.3,523,174.6,520.3,168.8z M501.3,188.9c0,6.9-1.4,12.2-4.2,15.8
			c-2.8,3.6-6.8,5.4-12,5.4c-5.2,0-9.3-1.8-12.1-5.3c-2.8-3.6-4.2-8.9-4.2-15.7c0-6.7,1.4-11.9,4.2-15.4c2.9-3.6,6.9-5.4,12.1-5.4
			c5.2,0,9.2,1.8,12,5.3C499.9,177.2,501.3,182.3,501.3,188.9z"/>
		<path id="XMLID_14_" class="st1" d="M610.8,164.6c-2.7-5.8-6.6-10.3-11.5-13.3c-4.9-3.1-10.7-4.7-17.1-4.7
			c-6.1,0-11.5,1.5-16.2,4.4c-3.1,1.9-5.5,4.2-7.2,6.9l-1.2-9.9h-22.2l0.1,0.7c0.4,3.2,0.7,6.5,0.9,9.7c0.2,3.2,0.3,6.4,0.3,9.4
			v86.2h23.1v-39.8c1.7,2.2,3.8,4.2,6.5,5.8c4.7,2.8,10.1,4.3,16.1,4.3c6.5,0,12.2-1.6,17.1-4.7c4.9-3.1,8.8-7.7,11.5-13.4
			c2.8-5.8,4.3-12.8,4.3-20.8C615.1,177.3,613.6,170.3,610.8,164.6z M591.8,185.2c0,7.2-1.5,12.7-4.5,16.1
			c-2.9,3.4-6.9,5.1-11.8,5.1c-4.8,0-8.8-1.7-11.8-5.1c-3-3.4-4.5-8.9-4.5-16.1c0-7.2,1.5-12.6,4.5-15.9c3.1-3.3,7-5,11.9-5
			c4.9,0,8.9,1.7,11.8,5C590.3,172.6,591.8,178,591.8,185.2z"/>
		<rect id="XMLID_13_" x="627.9" y="114.8" class="st2" width="23.1" height="107.8"/>
		<path id="XMLID_9_" class="st3" d="M720.7,148l-1.2,9.9c-1.7-2.8-4.2-5.1-7.3-6.9c-4.7-2.9-10.1-4.4-16.1-4.4
			c-6.5,0-12.2,1.6-17.1,4.7c-4.9,3-8.8,7.5-11.5,13.3c-2.7,5.7-4.1,12.7-4.1,20.7c0,8.1,1.4,15.1,4.1,20.8
			c2.7,5.8,6.6,10.3,11.5,13.4c4.9,3.1,10.7,4.7,17.1,4.7c5.9,0,11.2-1.4,16-4.3c2.7-1.7,5-3.6,6.7-5.9l0.1,8.6h22.9v-54.9
			c0-3,0.1-6.2,0.3-9.4c0.3-3.3,0.6-6.5,0.9-9.7l0.1-0.7H720.7z M718.9,185.2c0,7.2-1.5,12.7-4.5,16.1c-2.9,3.4-6.9,5.1-11.7,5.1
			c-4.9,0-8.9-1.7-11.8-5.1c-2.9-3.4-4.3-8.9-4.3-16.1c0-7.2,1.5-12.6,4.5-16c2.9-3.3,6.9-5,11.7-5c4.8,0,8.8,1.7,11.7,5
			C717.4,172.6,718.9,178,718.9,185.2z"/>
		<path id="XMLID_8_" class="st4" d="M811.9,148l-18.6,46.5L774.9,148h-24.4l30.6,71.3l-1.4,3.4c-1.2,2.9-2.8,5.3-4.8,7
			c-2,1.9-4.5,3.4-7.6,4.5c-3,1.1-6.9,2.2-11.3,3l-0.7,0.1l5.4,18.3l0.5-0.1c4.5-0.7,8.8-1.6,12.5-2.8c3.9-1.2,7.5-2.9,10.7-5
			c3.2-2.2,6.3-5.1,9-8.8c2.8-3.6,5.5-8.2,7.9-13.7l33.2-76.3l0.4-0.9H811.9z"/>
	</g>
	<path id="XMLID_6_" class="st1" d="M80,186.5V93.3c0-9,9.9-14.4,17.3-9.5l68.6,45.6l71.7,47.6c6.7,4.5,6.7,14.5,0,18.9L166,243.6
		l-68.6,45.6c-7.4,4.9-17.3-0.5-17.3-9.5V186.5z"/>
</g>
</svg>
