<svg width="20" height="20" viewBox="0 0 20 20" fill="none" xmlns="http://www.w3.org/2000/svg">
<path d="M10 13.5C9.57998 13.5 9.25 13.84 9.25 14.25C9.25 14.66 9.59003 15 10 15C10.41 15 10.7501 14.66 10.7501 14.25C10.7501 13.84 10.4201 13.5 10 13.5Z" fill="#FAFAFA"/>
<path d="M7 7.99809C7 6.34806 8.35001 4.99805 10 4.99805C11.65 4.99805 13 6.34806 13 7.99809C13 8.94816 12.47 9.8582 11.5501 10.4882C11.2501 10.6981 10.75 11.1383 10.75 11.7481C10.75 12.1581 10.41 12.4981 10 12.4981C9.59003 12.4981 9.25001 12.1581 9.25001 11.7481C9.25001 10.7982 9.78003 9.89823 10.7 9.25819C11 9.04809 11.5 8.60812 11.5 7.99809C11.5 7.16806 10.83 6.49807 10 6.49807C9.17 6.49807 8.50001 7.16806 8.50001 7.99809C8.50001 8.40808 8.16 8.7481 7.75 8.7481C7.34001 8.7481 7 8.40808 7 7.99809Z" fill="#FAFAFA"/>
<path fill-rule="evenodd" clip-rule="evenodd" d="M10 0C4.48978 0 0 4.4902 0 9.99999C0 15.5098 4.49021 20 10 20C15.5098 20 20 15.5098 20 9.99999C20 4.4902 15.5098 0 10 0ZM10 18.5C5.31008 18.5 1.50002 14.69 1.50002 9.99999C1.50002 5.30998 5.30999 1.50002 10 1.50002C14.69 1.50002 18.5 5.30998 18.5 9.99999C18.5 14.69 14.69 18.5 10 18.5Z" fill="#FAFAFA"/>
</svg>
