<svg width="110" height="110" viewBox="0 0 110 110" fill="none" xmlns="http://www.w3.org/2000/svg">
<circle cx="55" cy="55" r="50" fill="#FAFAFA"/>
<circle cx="55" cy="55" r="52.5" stroke="#00843C" stroke-opacity="0.2" stroke-width="5"/>
<circle cx="55" cy="55" r="45" fill="#00843C"/>
<path d="M75.2077 38.1246L75.2083 38.1249C75.874 38.4387 76.4389 38.8507 76.8814 39.3236C77.3231 39.7956 77.6326 40.3171 77.8124 40.8513C77.9917 41.384 78.0432 41.9326 77.9699 42.4718C77.8965 43.0117 77.6964 43.5512 77.3634 44.0589L77.3629 44.0596L58.1965 73.3092C58.1964 73.3094 58.1963 73.3095 58.1962 73.3097C57.8029 73.9095 57.2302 74.454 56.4993 74.879C55.782 75.2962 54.9439 75.5792 54.0476 75.6925L53.1111 75.7498C51.5466 75.7371 50.0857 75.2045 49.0435 74.3185L49.0415 74.3168L33.7081 61.3168L33.6951 61.3057L33.6819 61.2949C33.1507 60.86 32.7488 60.3577 32.4807 59.8285C32.2134 59.301 32.08 58.7495 32.0744 58.2029C32.0688 57.6565 32.1909 57.1043 32.4464 56.5748C32.7026 56.0438 33.0927 55.5375 33.6131 55.0963C34.1341 54.6546 34.7709 54.2911 35.4932 54.0405C36.2155 53.79 36.998 53.6613 37.7928 53.6671C38.5875 53.673 39.3667 53.8132 40.0824 54.0739C40.7983 54.3346 41.4259 54.7066 41.936 55.1544L41.9489 55.1657L41.9621 55.1768L50.1079 62.0831L51.8337 63.5463L53.074 61.6539L67.3072 39.9374L67.308 39.9362C67.6411 39.427 68.1041 38.9566 68.6862 38.5646C69.2686 38.1723 69.9522 37.8712 70.7011 37.6898C71.4499 37.5084 72.2384 37.4531 73.0181 37.5293C73.7978 37.6056 74.5421 37.8106 75.2077 38.1246Z" fill="#FAFAFA" stroke="#00843C" stroke-width="4"/>
</svg>
