<svg width="62" height="62" viewBox="0 0 62 62" fill="none" xmlns="http://www.w3.org/2000/svg">
<circle cx="31" cy="31" r="30.5" fill="#FAFAFA" stroke="#00843C"/>
<circle cx="31.0016" cy="30.9996" r="27.9" fill="#00843C"/>
<path d="M43.4148 20.773L43.4152 20.7732C43.8001 20.9547 44.1231 21.1912 44.3736 21.4589C44.6235 21.726 44.7953 22.0174 44.8942 22.3114C44.9928 22.6042 45.0207 22.904 44.9807 23.1981C44.9406 23.4928 44.831 23.7908 44.6449 24.0745L44.6445 24.0751L32.7614 42.2098C32.7613 42.2099 32.7612 42.21 32.7612 42.2101C32.5411 42.5457 32.2168 42.8561 31.7958 43.1009C31.3848 43.3399 30.9016 43.5043 30.3821 43.571L29.8191 43.6055C28.9078 43.5961 28.066 43.2847 27.4723 42.78L27.4708 42.7787L17.9641 34.7187L17.9544 34.7104L17.9444 34.7023C17.6412 34.454 17.4158 34.1706 17.2669 33.8768C17.1187 33.5842 17.0461 33.2815 17.0431 32.9838C17.04 32.6861 17.1064 32.3832 17.2479 32.09C17.39 31.7956 17.6085 31.5102 17.9052 31.2586C18.2024 31.0067 18.5687 30.7968 18.988 30.6514C19.4071 30.506 19.8628 30.4308 20.3266 30.4342C20.7903 30.4377 21.2439 30.5195 21.6591 30.6707C22.0744 30.822 22.4351 31.0366 22.7258 31.2917L22.7355 31.3002L22.7453 31.3086L27.7957 35.5905L29.0901 36.6879L30.0203 35.2686L38.8449 21.8043L38.8455 21.8034C39.0318 21.5186 39.2936 21.2513 39.6276 21.0263C39.9619 20.8012 40.3571 20.6265 40.7928 20.521C41.2286 20.4155 41.6882 20.3831 42.1429 20.4276C42.5976 20.472 43.03 20.5915 43.4148 20.773Z" fill="#FAFAFA" stroke="#00843C" stroke-width="3"/>
</svg>
