<svg width="24" height="22" viewBox="0 0 24 22" fill="none" xmlns="http://www.w3.org/2000/svg">
<path d="M11.9983 21.7802L11.4657 21.4415C11.0076 21.1497 0.238281 14.2247 0.238281 7.80671C0.238281 3.7211 2.12062 0.925692 5.27368 0.32949C8.27769 -0.238331 11.4825 1.50019 12.5755 4.2867C12.7754 4.79646 12.5244 5.37224 12.0142 5.57216C11.5028 5.77232 10.9286 5.52107 10.7287 5.01084C9.97223 3.08216 7.73571 1.88223 5.64231 2.27844C3.4683 2.68946 2.2215 4.70444 2.2215 7.80685C2.2215 11.9807 8.83931 17.2955 11.9981 19.4193C15.1571 17.2955 21.7747 11.9811 21.7747 7.80685C21.7747 5.28364 20.9405 3.45264 19.4263 2.65064C18.0696 1.93259 16.2809 2.08781 14.8695 3.04736C14.4169 3.35604 13.7996 3.2379 13.4917 2.78478C13.1838 2.33165 13.3014 1.71485 13.7543 1.40695C15.7665 0.0399094 18.3573 -0.160231 20.3545 0.897892C21.6257 1.57085 23.7581 3.3635 23.7581 7.80691C23.7581 14.2249 12.9889 21.1499 12.5307 21.4415L11.9983 21.7802Z" fill="#343A40"/>
</svg>
